<svg width="256" height="256" viewBox="0 0 256 256" fill="none" xmlns="http://www.w3.org/2000/svg">
  <defs>
    <linearGradient id="bg" x1="28" y1="24" x2="214" y2="232" gradientUnits="userSpaceOnUse">
      <stop stop-color="#6D28D9"/>
      <stop offset="0.55" stop-color="#4338CA"/>
      <stop offset="1" stop-color="#EC4899"/>
    </linearGradient>
    <linearGradient id="glass" x1="128" y1="64" x2="128" y2="210" gradientUnits="userSpaceOnUse">
      <stop stop-color="#F5F3FF" stop-opacity="0.96"/>
      <stop offset="1" stop-color="#EDE9FE" stop-opacity="0.74"/>
    </linearGradient>
  </defs>
  <rect x="20" y="20" width="216" height="216" rx="60" fill="url(#bg)"/>
  <rect x="32" y="32" width="192" height="192" rx="48" fill="white" fill-opacity="0.08" stroke="white" stroke-opacity="0.16" stroke-width="2"/>
  <path d="M108 62C108 50.954 116.954 42 128 42C139.046 42 148 50.954 148 62V106L183.733 165.556C193.793 182.328 181.707 204 162.177 204H93.823C74.293 204 62.2072 182.328 72.2671 165.556L108 106V62Z" fill="url(#glass)"/>
  <path d="M93 171C97.6953 162.093 107.047 156 117.824 156H138.176C148.953 156 158.305 162.093 163 171C166.49 177.621 161.69 186 154.203 186H101.797C94.3101 186 89.5098 177.621 93 171Z" fill="#EC4899" fill-opacity="0.78"/>
  <path d="M112 92H144" stroke="#6D28D9" stroke-width="10" stroke-linecap="round"/>
  <path d="M112 116H144" stroke="#8B5CF6" stroke-width="8" stroke-linecap="round" opacity="0.88"/>
  <circle cx="128" cy="138" r="10" fill="#4338CA"/>
  <path d="M176 76L184 84" stroke="#FDE68A" stroke-width="6" stroke-linecap="round"/>
  <path d="M184 76L176 84" stroke="#FDE68A" stroke-width="6" stroke-linecap="round"/>
</svg>
